<?xml version="1.0" standalone="no"?>
<!DOCTYPE svg PUBLIC "-//W3C//DTD SVG 20010904//EN"
 "http://www.w3.org/TR/2001/REC-SVG-20010904/DTD/svg10.dtd">
<svg version="1.0" xmlns="http://www.w3.org/2000/svg"
 width="3626.000000pt" height="2056.000000pt" viewBox="0 0 3626.000000 2056.000000"
 preserveAspectRatio="xMidYMid meet">

<g transform="translate(0.000000,2056.000000) scale(0.100000,-0.100000)"
fill="#000000" stroke="none">
<path d="M0 10280 l0 -10280 18130 0 18130 0 0 10280 0 10280 -18130 0 -18130
0 0 -10280z m12763 5266 c-10 -13 -20 -20 -21 -15 -5 12 17 39 30 39 5 0 1
-11 -9 -24z m-518 -71 c22 -21 25 -33 25 -93 0 -37 -5 -73 -10 -78 -7 -7 -5
-21 6 -43 24 -48 16 -154 -14 -184 -19 -19 -36 -23 -111 -25 -113 -5 -155 12
-172 68 -13 42 -5 118 15 145 10 14 10 25 -2 61 -20 61 -9 127 25 154 22 17
40 20 120 20 86 0 96 -2 118 -25z m479 -54 c-7 -77 -6 -79 19 -96 24 -15 134
-17 1454 -21 785 -2 1806 -7 2268 -10 462 -4 1664 -8 2670 -8 1007 -1 1836 -5
1843 -9 7 -5 406 -8 885 -6 480 1 880 1 891 0 15 -1 17 -6 12 -35 -11 -55 -47
-160 -60 -174 -10 -10 -994 -12 -5075 -12 -2784 0 -5067 2 -5072 6 -15 9 -10
60 12 111 32 77 83 178 92 181 4 2 7 12 7 22 0 9 7 23 15 30 8 7 15 23 15 36
0 13 5 24 10 24 6 0 10 9 10 20 0 11 2 20 5 20 3 0 3 -35 -1 -79z m13498 51
c22 -21 23 -31 26 -191 4 -167 4 -168 -21 -197 -25 -29 -26 -29 -137 -29 -110
0 -112 0 -136 28 -29 34 -32 82 -6 96 23 12 37 3 47 -29 11 -35 22 -40 91 -40
77 0 94 13 97 70 l2 45 -95 3 c-104 2 -132 12 -149 49 -15 32 -14 142 2 173
21 41 53 51 159 48 86 -3 100 -6 120 -26z m-5124 -552 c2 -6 14 -10 27 -10 12
0 28 -7 35 -15 19 -23 60 -19 60 5 0 19 5 19 78 14 72 -6 152 -29 152 -45 0
-4 9 -9 20 -12 11 -3 20 -1 20 3 0 5 13 11 30 15 16 4 32 11 35 16 4 5 23 9
44 9 32 0 44 -6 74 -40 39 -45 40 -75 1 -84 -15 -4 -21 -11 -18 -21 4 -10 0
-15 -14 -15 -11 0 -22 5 -24 10 -3 11 -151 16 -168 5 -5 -3 -18 -1 -28 4 -18
10 -110 -14 -123 -32 -3 -4 -48 -10 -100 -13 -52 -3 -101 -8 -109 -11 -23 -9
-114 -2 -127 9 -8 6 -30 6 -65 -1 -69 -14 -125 -16 -167 -7 -23 6 -36 4 -41
-4 -13 -22 -96 -29 -267 -25 -445 12 -773 5 -817 -17 -13 -7 -21 -6 -27 3 -12
20 -178 22 -186 3 -6 -17 -37 -18 -62 -2 -11 7 -26 8 -37 3 -11 -5 -54 -9 -96
-10 -48 -1 -83 -7 -94 -15 -22 -19 -323 -26 -377 -9 -29 10 -40 10 -49 1 -17
-17 -44 -15 -73 4 -30 20 -172 33 -240 22 -38 -5 -57 -15 -78 -39 -26 -29 -30
-30 -58 -19 -23 10 -32 10 -44 0 -17 -14 -45 -7 -45 12 0 10 -26 13 -107 13
-60 0 -129 4 -155 9 l-47 9 -9 -34 c-8 -30 -12 -34 -38 -31 -16 2 -41 12 -56
23 -26 18 -30 18 -70 4 -59 -20 -73 -19 -92 10 -19 29 -55 46 -106 51 -51 4
-124 19 -139 28 -8 6 -23 -2 -41 -23 -21 -23 -38 -31 -62 -31 -37 0 -118 39
-118 56 0 6 -25 14 -56 17 -30 3 -66 13 -79 21 -14 9 -42 16 -65 16 -37 0 -55
13 -28 22 6 2 9 9 5 15 -4 7 -21 6 -54 -2 -40 -11 -51 -10 -64 1 -8 8 -31 17
-50 20 -19 4 -43 13 -54 21 -18 13 -11 14 65 11 53 -2 84 1 83 7 -1 6 10 11
24 11 13 1 46 5 71 9 38 6 43 9 27 16 -19 7 -19 8 3 8 12 1 22 5 22 10 0 13
80 21 275 29 273 11 3869 3 3873 -8z m1880 14 c20 -4 29 -11 25 -19 -3 -8 5
-15 19 -18 l23 -4 -22 -8 c-13 -4 -19 -13 -16 -21 3 -8 -3 -17 -13 -20 -30
-11 -55 -36 -70 -72 -9 -23 -19 -32 -31 -31 -22 4 -135 -50 -128 -61 8 -12
-38 2 -52 16 -19 18 -16 39 11 92 27 52 51 78 111 122 41 29 82 36 143 24z
m1512 -19 c8 -8 31 -15 50 -17 28 -2 38 -10 54 -40 18 -35 18 -39 3 -56 -9
-10 -17 -23 -17 -28 0 -5 -16 -26 -34 -46 -24 -27 -45 -39 -75 -44 -22 -4 -46
-13 -52 -20 -9 -12 -4 -14 27 -14 62 -1 75 -28 66 -136 -6 -81 -9 -90 -32
-101 -32 -16 -101 -17 -123 0 -24 18 -27 60 -4 65 10 2 24 -4 30 -12 7 -9 26
-18 42 -19 23 -2 31 2 33 18 2 18 -3 20 -49 20 -41 0 -54 4 -70 23 l-18 23 -5
-23 c-3 -13 -7 -39 -8 -58 -3 -33 -5 -36 -56 -48 -49 -12 -55 -11 -82 8 -31
22 -41 64 -17 73 8 3 7 10 -7 26 l-20 21 -33 -32 c-39 -38 -41 -48 -10 -48 29
0 51 -15 43 -29 -10 -16 -166 -15 -166 2 0 6 25 40 56 75 34 38 54 68 50 77
-8 21 -32 18 -55 -6 -14 -16 -27 -20 -45 -15 -25 6 -45 -8 -26 -19 5 -3 10
-28 10 -54 0 -63 -16 -76 -92 -76 -82 0 -89 12 -87 136 1 53 -2 102 -6 109 -6
9 -4 11 6 6 8 -4 5 0 -6 9 -13 11 -30 14 -49 11 -22 -5 -32 -1 -48 19 -11 14
-24 23 -29 20 -5 -4 -9 -2 -9 4 0 12 -24 20 -76 27 -21 2 -43 9 -48 14 -6 6
-17 10 -26 10 -14 0 -74 25 -88 36 -10 7 11 43 21 38 7 -4 9 -4 5 1 -4 4 -3
16 2 25 8 15 20 18 62 15 29 -2 53 -5 53 -6 0 -1 13 -3 28 -5 18 -2 30 2 34
12 3 8 13 14 22 14 9 0 23 6 29 13 27 26 812 28 842 2z m-9941 -4 c11 -6 45
-11 75 -11 45 0 57 -4 66 -20 8 -14 21 -20 45 -20 41 0 123 -36 184 -80 32
-24 49 -30 68 -25 20 5 24 3 20 -9 -4 -9 5 -28 18 -45 47 -55 27 -57 -100 -12
-32 11 -66 21 -75 21 -8 0 -40 13 -70 30 -110 59 -140 69 -203 71 -51 1 -72
-3 -117 -27 -52 -28 -60 -29 -168 -26 -135 3 -182 -8 -240 -55 -33 -27 -56
-36 -104 -43 -57 -8 -92 -4 -60 7 17 7 15 43 -3 43 -8 0 -15 -5 -15 -10 0 -29
-208 -88 -223 -63 -7 11 53 83 69 83 6 0 17 7 24 15 7 9 32 25 55 35 23 10 48
26 55 35 7 8 21 15 31 15 10 0 34 9 54 20 20 11 44 20 55 20 10 0 22 5 25 10
3 6 21 10 40 10 19 0 37 5 40 10 3 6 28 10 54 10 26 0 51 4 57 10 20 20 305
21 343 1z m6634 12 c-13 -2 -33 -2 -45 0 -13 2 -3 4 22 4 25 0 35 -2 23 -4z
m712 -53 c34 -13 23 -30 -20 -30 -18 0 -40 -7 -49 -15 -8 -8 -30 -15 -48 -14
-30 0 -31 1 -10 9 12 5 22 15 22 23 0 7 15 18 33 24 44 14 43 14 72 3z m-98
-76 c-3 -3 -12 -4 -19 -1 -8 3 -5 6 6 6 11 1 17 -2 13 -5z m-6727 -64 c0 -5
-7 -10 -16 -10 -8 0 -12 5 -9 10 3 6 10 10 16 10 5 0 9 -4 9 -10z m4858 -97
c3 -19 -1 -23 -22 -23 -28 0 -41 14 -32 36 9 24 50 13 54 -13z m4729 1 c3 -8
1 -25 -5 -37 -6 -12 -28 -58 -48 -102 -36 -77 -60 -108 -76 -99 -9 6 -11 48
-2 57 10 9 74 160 74 174 0 24 48 30 57 7z m166 -12 c19 -17 22 -53 7 -82 -7
-13 -7 -21 0 -25 13 -8 13 -61 0 -84 -12 -23 -82 -35 -125 -21 -36 12 -51 51
-36 92 4 12 4 37 -1 55 -10 38 3 70 33 81 29 11 102 2 122 -16z m209 1 c14
-13 18 -31 18 -95 0 -113 -4 -118 -95 -118 -44 0 -77 5 -81 11 -13 22 -22 163
-11 184 15 30 27 35 91 35 41 0 65 -5 78 -17z m212 4 c15 -11 18 -27 17 -102
-1 -48 -6 -94 -12 -102 -7 -8 -34 -13 -75 -13 -86 0 -94 9 -94 115 0 104 8
115 89 115 31 0 65 -6 75 -13z m214 -3 c20 -14 22 -24 22 -99 0 -104 -8 -115
-90 -115 -82 0 -90 11 -90 115 0 75 2 85 22 99 12 9 43 16 68 16 25 0 56 -7
68 -16z m-9246 -1666 l3 -52 53 3 c82 4 92 -10 92 -126 0 -76 -3 -93 -15 -93
-12 0 -15 15 -15 76 0 91 -10 114 -51 114 -61 0 -69 -12 -69 -106 0 -76 -2
-85 -17 -82 -16 3 -18 19 -21 148 -3 154 -1 170 22 170 11 0 16 -14 18 -52z
m1458 -88 c0 -129 1 -140 20 -150 29 -15 25 -32 -7 -28 -43 5 -53 37 -53 179
0 127 2 139 27 139 10 0 13 -30 13 -140z m-970 107 c37 -19 48 -87 14 -87 -8
0 -14 8 -14 19 0 31 -25 42 -82 39 l-53 -3 0 -110 0 -110 60 0 c53 0 61 3 70
23 15 34 37 28 33 -10 -4 -45 -36 -60 -116 -55 -87 6 -91 14 -92 154 0 109 1
112 26 132 31 24 113 29 154 8z m5594 -8 c21 -16 26 -29 26 -63 0 -39 -6 -50
-59 -107 -33 -35 -57 -66 -55 -69 3 -2 28 -7 56 -10 28 -3 53 -11 56 -17 3
-10 -22 -13 -102 -13 -58 0 -106 3 -106 8 0 4 36 43 80 87 74 73 81 83 78 115
-3 35 -3 35 -56 38 -48 3 -53 1 -62 -23 -12 -32 -34 -28 -38 7 -7 61 121 95
182 47z m240 11 c30 -11 49 -44 41 -70 -9 -27 -23 -25 -37 5 -11 24 -16 26
-67 23 -55 -3 -56 -4 -59 -35 l-3 -33 59 0 c85 0 112 -23 112 -96 0 -77 -19
-94 -108 -94 -104 0 -107 4 -107 150 0 116 1 123 24 141 26 21 101 26 145 9z
m-7274 -30 c0 -9 78 -178 87 -189 8 -10 31 28 68 109 48 106 53 114 72 99 11
-9 13 -40 11 -143 -3 -115 -5 -131 -20 -134 -16 -3 -18 6 -18 82 0 47 -3 86
-7 86 -5 0 -26 -37 -48 -82 -22 -45 -45 -83 -50 -85 -6 -2 -27 33 -48 77 -20
44 -41 80 -47 80 -6 0 -10 -33 -10 -80 0 -73 -2 -80 -20 -80 -19 0 -20 7 -20
138 0 76 3 142 6 145 8 8 44 -11 44 -23z m6825 21 c3 -5 -9 -40 -26 -78 -82
-182 -94 -203 -111 -203 -27 0 -22 20 27 122 61 127 61 128 -24 128 -67 0 -89
9 -76 30 8 13 202 13 210 1z m709 -41 c21 -28 41 -47 48 -44 7 3 25 23 41 45
15 22 34 42 43 46 35 13 31 -15 -11 -76 -49 -72 -50 -66 15 -161 30 -45 30
-45 8 -48 -22 -4 -41 13 -80 68 l-17 25 -42 -47 c-22 -27 -50 -48 -60 -48 -10
0 -19 2 -19 6 0 3 18 32 40 64 22 32 40 64 40 70 0 6 -18 38 -40 71 -23 33
-38 64 -35 69 13 21 34 8 69 -40z m387 31 c20 -16 24 -29 24 -74 0 -75 -19
-95 -94 -99 l-56 -3 -3 -47 c-3 -39 -7 -48 -21 -48 -11 0 -22 7 -25 16 -12 30
-7 249 6 262 7 7 40 12 79 12 51 0 72 -5 90 -19z m-7339 -24 c2 -16 11 -23 31
-25 19 -2 27 -9 27 -23 0 -15 -7 -19 -30 -19 l-31 0 3 -72 c3 -72 3 -73 32
-78 16 -3 31 -11 34 -18 3 -10 -7 -12 -39 -10 -54 4 -69 28 -69 116 0 48 -3
62 -15 62 -8 0 -15 9 -15 20 0 11 6 20 14 20 8 0 17 13 21 29 7 34 32 32 37
-2z m2184 -2 c4 -18 13 -25 29 -25 22 0 40 -22 28 -34 -4 -3 -17 -6 -30 -6
-22 0 -23 -3 -23 -69 0 -68 1 -69 30 -80 40 -14 38 -31 -4 -31 -49 0 -66 28
-66 109 0 49 -4 67 -17 77 -16 13 -17 15 -2 27 9 6 19 22 23 35 10 29 24 28
32 -3z m3709 -27 c2 -13 6 -34 7 -48 3 -22 9 -26 48 -30 25 -3 44 -8 43 -12
-2 -5 -3 -12 -3 -17 0 -6 -19 -11 -42 -13 -43 -3 -43 -3 -48 -48 -4 -32 -10
-46 -22 -48 -13 -3 -18 3 -18 22 0 13 -4 36 -10 50 -8 22 -16 26 -50 26 -33 0
-40 3 -40 20 0 17 7 20 40 20 44 0 60 18 60 69 0 37 27 43 35 9z m-6024 -8
c17 -10 19 -22 19 -110 l0 -99 -32 -1 c-128 -7 -138 -2 -138 61 0 29 5 38 25
47 14 7 36 12 48 12 28 0 67 26 67 44 0 32 -84 36 -102 6 -15 -24 -38 -26 -38
-3 0 33 31 53 82 53 27 0 58 -5 69 -10z m394 -6 c9 -9 15 -26 13 -37 -4 -27
-28 -35 -28 -9 0 31 -59 44 -101 22 -27 -15 -28 -126 -1 -146 33 -25 102 -10
102 22 0 9 6 14 13 12 21 -8 19 -36 -4 -59 -18 -18 -30 -21 -75 -17 -30 3 -60
10 -67 17 -20 20 -22 157 -3 186 14 22 24 25 76 25 41 0 63 -5 75 -16z m849 0
c12 -11 16 -36 16 -93 0 -104 -9 -116 -93 -116 -89 0 -97 8 -97 108 0 105 10
117 96 117 44 0 67 -5 78 -16z m358 2 c15 -9 18 -25 18 -108 0 -91 -1 -98 -20
-98 -19 0 -20 7 -20 90 0 87 -1 90 -24 96 -14 3 -34 3 -45 -1 -18 -5 -21 -16
-23 -93 -3 -73 -6 -87 -20 -90 -16 -3 -18 6 -18 80 0 88 -8 108 -44 108 -43 0
-51 -15 -55 -105 -2 -64 -6 -85 -17 -85 -11 0 -14 22 -14 104 l0 105 28 3 c64
9 237 5 254 -6z m254 3 c16 -13 20 -174 4 -199 -6 -11 -28 -15 -72 -16 l-63
-1 -5 -49 c-4 -35 -9 -49 -20 -49 -13 0 -15 25 -18 150 -1 82 -1 154 2 160 6
15 154 19 172 4z m346 -6 c23 -21 25 -88 2 -97 -9 -3 -42 -6 -75 -6 -58 0 -59
0 -59 -28 0 -37 17 -52 56 -52 32 0 57 16 67 42 8 23 30 -8 22 -32 -8 -24 -42
-40 -88 -40 -53 0 -75 10 -87 41 -15 36 -9 151 9 173 19 23 127 22 153 -1z
m382 4 c13 -10 17 -24 14 -57 l-3 -45 -70 -5 c-62 -4 -70 -7 -73 -26 -8 -55
76 -74 114 -26 20 24 23 25 29 10 4 -10 5 -25 1 -33 -13 -35 -114 -47 -154
-19 -20 14 -22 24 -22 103 0 54 4 91 12 99 16 16 129 15 152 -1z m-2891 -884
c8 -16 12 -34 10 -40 -7 -20 -27 -15 -38 10 -8 18 -19 23 -58 25 -52 3 -77 -9
-77 -38 0 -26 29 -46 92 -64 83 -24 114 -83 71 -135 -25 -29 -153 -33 -183 -6
-27 24 -27 65 0 65 11 0 20 -6 20 -14 0 -26 30 -46 69 -46 50 0 74 18 69 55
-3 27 -10 32 -77 55 -84 30 -105 50 -97 98 8 55 20 62 107 62 76 0 79 -1 92
-27z m6894 1 c13 -20 16 -47 16 -121 -1 -139 -13 -153 -123 -153 -68 0 -100
19 -100 61 0 36 30 40 45 7 9 -20 18 -23 65 -23 55 0 55 0 58 33 l3 32 -62 0
c-85 0 -109 21 -109 97 0 84 10 93 107 93 78 0 84 -2 100 -26z m267 4 c20 -28
20 -54 1 -62 -10 -4 -20 3 -27 20 -11 23 -16 25 -67 22 -55 -3 -56 -4 -56 -33
0 -30 1 -30 67 -36 87 -7 98 -17 98 -88 0 -80 -13 -94 -91 -99 -87 -5 -115 7
-129 56 -13 52 -4 189 15 219 14 21 23 23 95 23 70 0 81 -2 94 -22z m231 -28
c39 -53 52 -55 77 -12 24 40 55 65 73 58 13 -5 12 -11 -10 -43 -14 -21 -32
-53 -41 -71 -14 -32 -14 -35 21 -90 19 -32 35 -63 35 -70 0 -26 -40 -10 -70
28 -17 22 -36 40 -42 40 -5 0 -26 -18 -45 -40 -35 -39 -56 -49 -67 -32 -3 5
13 35 34 68 22 32 40 63 40 67 0 4 -18 35 -40 68 -23 33 -38 64 -35 69 13 21
35 8 70 -40z m390 30 c10 -11 20 -42 23 -70 6 -68 -14 -100 -66 -101 -71 -2
-87 -11 -92 -54 -4 -32 -9 -40 -25 -40 -19 0 -20 8 -23 129 -1 72 0 136 2 143
4 9 29 13 84 13 66 0 82 -3 97 -20z m-1245 -81 c0 -38 1 -39 38 -39 45 0 67
-13 59 -34 -4 -11 -19 -16 -46 -16 -43 0 -46 -4 -53 -70 -2 -14 -10 -26 -19
-28 -11 -2 -18 10 -25 45 -9 46 -10 48 -49 53 -60 8 -59 34 2 46 46 9 48 11
51 44 4 55 10 64 27 50 9 -7 15 -29 15 -51z m-6308 14 c22 -19 24 -53 3 -53
-8 0 -19 9 -25 20 -8 15 -21 20 -48 20 -51 0 -62 -14 -62 -81 0 -68 16 -89 66
-89 27 0 37 5 46 25 6 14 15 25 20 25 15 0 20 -28 8 -49 -9 -18 -20 -21 -78
-21 -40 0 -73 5 -80 12 -19 19 -16 173 4 192 22 22 121 22 146 -1z m238 -3
c16 -16 20 -33 20 -92 0 -96 -11 -108 -100 -108 -38 0 -71 5 -78 12 -8 8 -12
45 -12 100 0 102 4 107 93 108 44 0 62 -5 77 -20z m170 11 c0 -6 -12 -16 -27
-23 -27 -13 -28 -17 -33 -98 -4 -67 -8 -85 -20 -85 -12 0 -15 18 -15 100 l0
100 30 6 c46 10 65 10 65 0z m204 -7 c9 -9 16 -32 16 -55 0 -33 -4 -40 -25
-45 -14 -3 -36 -3 -50 0 -44 11 -75 -3 -75 -33 0 -36 17 -51 59 -51 26 0 41 7
57 28 21 25 23 26 30 8 14 -36 -8 -51 -80 -54 -41 -2 -73 2 -82 9 -10 8 -14
36 -14 100 0 103 4 108 92 109 38 0 62 -5 72 -16z m6023 -870 c9 -12 13 -53
13 -131 0 -147 -5 -153 -123 -153 -119 0 -121 2 -125 140 -5 140 4 157 80 163
89 7 141 1 155 -19z m295 -4 c17 -21 19 -37 16 -131 -4 -141 -10 -149 -121
-149 -69 0 -84 3 -104 22 -21 20 -23 29 -23 133 0 94 3 114 18 127 27 24 43
28 121 25 64 -2 76 -6 93 -27z m-7340 3 c8 -10 21 -38 28 -63 7 -25 17 -49 20
-55 4 -5 10 -21 14 -35 3 -14 10 -32 16 -40 8 -13 11 -12 24 5 21 28 20 85 -4
141 -13 30 -17 51 -11 57 11 11 31 1 31 -16 1 -7 7 -25 14 -42 l13 -30 21 48
c24 55 47 64 37 15 -4 -18 -11 -38 -16 -43 -16 -20 -20 -89 -7 -114 18 -33 34
-37 41 -9 8 37 59 172 70 186 30 38 36 -9 8 -71 -11 -23 -25 -60 -33 -82 -18
-57 -51 -118 -65 -123 -7 -2 -17 8 -23 22 -5 14 -15 38 -21 54 l-11 27 -13
-25 c-8 -14 -14 -32 -15 -41 0 -9 -7 -22 -16 -29 -12 -11 -17 -11 -28 1 -14
15 -91 205 -102 252 -7 31 6 35 28 10z m396 -6 c2 -10 -3 -17 -12 -17 -10 0
-16 9 -16 21 0 24 23 21 28 -4z m6330 -105 c2 -108 5 -122 20 -122 9 0 23 -4
31 -9 12 -8 13 -12 1 -26 -20 -24 -153 -18 -158 8 -3 12 5 19 27 23 l31 7 0
83 c0 81 -1 84 -20 72 -15 -10 -22 -10 -32 0 -9 9 -4 20 27 52 62 64 70 55 73
-88z m849 81 l43 -48 41 48 c69 80 95 56 34 -32 -19 -28 -35 -59 -35 -68 0
-10 16 -42 35 -70 40 -60 43 -73 15 -73 -12 0 -31 16 -48 40 -15 21 -33 41
-40 44 -7 3 -24 -11 -40 -33 -33 -48 -60 -67 -75 -52 -7 7 3 30 31 74 23 35
42 67 42 71 0 4 -18 34 -40 68 -21 33 -37 65 -34 69 11 18 29 8 71 -38z m389
26 c14 -15 19 -36 19 -76 0 -66 -25 -93 -85 -93 -58 0 -70 -8 -70 -45 0 -52
-8 -67 -31 -54 -17 9 -19 22 -19 134 0 68 3 130 6 139 5 13 22 16 84 16 65 0
80 -3 96 -21z m-1496 -69 c5 -43 6 -44 50 -55 55 -13 61 -38 10 -43 -46 -5
-58 -16 -62 -60 -4 -43 -31 -52 -36 -12 -7 65 -10 69 -55 72 -54 4 -60 31 -7
36 42 4 60 24 60 67 0 63 33 59 40 -5z m-5855 18 c32 -14 37 -33 33 -131 -4
-95 -22 -102 -26 -10 -4 111 -5 113 -62 113 -58 0 -58 -2 -62 -115 -2 -40 -7
-69 -13 -68 -14 3 -26 99 -19 156 5 43 8 47 32 47 15 0 34 5 42 10 20 13 44
12 75 -2z m-215 -107 c0 -97 -11 -132 -31 -100 -10 16 -12 182 -2 192 3 4 12
7 20 7 10 0 13 -23 13 -99z m-230 -764 c19 -9 26 -22 28 -50 4 -46 -18 -51
-35 -6 -11 29 -13 30 -70 27 l-58 -3 0 -110 0 -110 57 -3 c55 -3 58 -2 73 28
21 40 35 38 35 -5 0 -28 -5 -37 -30 -50 -37 -19 -113 -19 -149 0 -28 14 -29
17 -33 102 -5 127 2 165 32 180 32 16 118 16 150 0z m2478 -10 c14 -11 17 -77
3 -77 -6 0 -16 12 -23 28 -12 24 -19 27 -68 30 -71 4 -80 -8 -80 -111 0 -105
7 -117 73 -117 29 0 58 5 65 12 22 22 13 47 -23 62 -19 8 -35 17 -35 20 0 4
23 6 50 6 l50 0 0 -54 c0 -37 -5 -58 -16 -67 -25 -21 -125 -24 -162 -5 l-32
17 0 123 c0 128 3 139 45 148 31 7 139 -4 153 -15z m4106 4 c11 -9 16 -30 16
-65 0 -50 -2 -54 -60 -111 l-61 -60 58 -5 c50 -4 58 -8 58 -25 0 -18 -8 -20
-97 -23 -124 -3 -125 4 -23 109 65 66 75 81 75 112 0 33 -3 37 -34 42 -45 9
-73 -1 -79 -26 -8 -31 -43 -21 -39 11 4 44 39 63 108 58 34 -2 69 -10 78 -17z
m280 -2 c25 -20 26 -23 26 -135 0 -148 -5 -154 -123 -154 -117 0 -122 6 -122
157 0 110 1 115 25 133 37 29 157 28 194 -1z m301 -4 c23 -22 25 -31 25 -128
0 -90 -3 -108 -21 -131 -19 -24 -26 -26 -104 -26 -78 0 -85 2 -104 26 -18 23
-21 41 -21 131 0 97 2 106 25 128 21 22 33 25 100 25 67 0 79 -3 100 -25z
m-5492 0 c8 -18 -11 -31 -25 -17 -11 11 -3 32 12 32 4 0 10 -7 13 -15z m5729
-30 c18 -24 40 -44 48 -44 8 0 29 19 45 42 32 44 81 66 68 30 -3 -10 -23 -42
-44 -72 -43 -60 -43 -56 18 -145 33 -48 33 -73 1 -61 -8 3 -30 26 -48 51 -30
39 -60 58 -60 37 0 -5 -18 -28 -39 -53 -31 -36 -42 -42 -52 -33 -10 10 -4 24
29 72 23 32 42 65 42 71 0 7 -18 39 -40 72 -23 32 -38 63 -35 68 13 20 35 8
67 -35z m395 19 c22 -22 25 -32 21 -75 -3 -28 -12 -57 -21 -66 -8 -8 -41 -18
-74 -22 l-58 -6 -5 -47 c-7 -57 -17 -69 -36 -44 -10 15 -14 52 -14 137 0 65 3
124 6 133 5 13 22 16 81 16 66 0 77 -3 100 -26z m-6257 -19 c0 -18 6 -24 25
-27 32 -4 34 -21 3 -28 -21 -5 -23 -12 -26 -78 l-3 -72 31 -6 c17 -4 29 -12
27 -18 -6 -18 -46 -19 -73 -2 -22 15 -24 23 -24 90 0 65 -3 75 -22 88 l-22 15
22 12 c12 6 22 20 22 31 0 18 18 31 33 23 4 -2 7 -15 7 -28z m4712 -52 l3 -48
48 -3 c39 -3 48 -6 45 -20 -2 -12 -16 -18 -48 -22 l-45 -5 -3 -47 c-3 -39 -7
-48 -22 -48 -15 0 -19 9 -22 48 -3 42 -6 47 -28 50 -82 9 -94 34 -19 42 42 5
44 7 47 40 4 48 9 60 26 60 11 0 16 -14 18 -47z m-5992 8 c5 -11 10 -55 10
-99 0 -98 -8 -107 -97 -107 -83 0 -93 12 -93 113 0 106 5 112 95 112 63 0 76
-3 85 -19z m239 5 c14 -16 26 -146 17 -182 -4 -13 -13 -24 -21 -24 -12 0 -15
16 -15 83 0 51 -5 88 -12 95 -16 16 -85 15 -95 0 -4 -7 -10 -48 -13 -91 -3
-42 -9 -78 -15 -80 -10 -2 -20 175 -11 198 7 19 150 20 165 1z m226 -6 c18
-20 15 -50 -6 -50 -6 0 -13 9 -16 20 -4 17 -14 20 -54 20 -45 0 -49 -2 -49
-24 0 -20 9 -26 53 -41 61 -20 87 -40 87 -69 -1 -38 -26 -59 -79 -64 -44 -4
-53 -1 -76 22 -27 27 -29 46 -6 54 7 2 15 -5 18 -17 4 -18 13 -21 54 -21 45 0
49 2 49 24 0 20 -9 26 -57 43 -73 24 -96 56 -70 97 16 23 24 26 76 26 45 0 62
-4 76 -20z m224 11 c8 -5 15 -27 15 -53 l1 -43 -70 -5 -70 -5 0 -35 c0 -34 1
-35 44 -38 37 -3 48 1 62 20 22 28 45 13 34 -22 -14 -43 -113 -55 -159 -19
-24 19 -26 26 -26 96 0 100 11 113 94 113 34 0 67 -4 75 -9z m227 1 c15 -10
24 -40 18 -57 -9 -22 -19 -18 -32 10 -9 20 -19 25 -49 25 -59 0 -64 -8 -61
-86 l3 -69 44 -3 c37 -3 48 1 62 19 20 27 43 17 33 -14 -4 -12 -14 -27 -23
-34 -23 -18 -102 -16 -129 3 -20 14 -22 24 -22 103 0 54 4 91 12 99 13 13 126
16 144 4z m104 -88 l5 -89 50 0 50 0 5 90 c4 71 8 90 20 90 12 0 16 -20 18
-106 l3 -107 -64 -6 c-42 -5 -72 -3 -90 5 -27 12 -27 13 -27 116 0 79 3 104
13 101 8 -3 14 -35 17 -94z m398 5 c3 -97 -2 -129 -23 -129 -12 0 -15 19 -15
103 0 57 3 107 7 111 19 18 28 -8 31 -85z m78 74 c22 -65 50 -133 55 -133 9 0
38 63 45 99 7 34 28 56 43 47 11 -7 8 -19 -18 -81 -10 -22 -24 -60 -31 -84
-15 -47 -35 -62 -54 -40 -19 21 -78 188 -71 199 10 16 25 12 31 -7z m352 5 c7
-7 12 -31 12 -55 l0 -42 -67 -3 -68 -3 0 -35 c0 -35 0 -35 48 -38 42 -3 49 0
54 17 8 29 33 26 33 -3 0 -51 -87 -74 -150 -41 -30 15 -30 17 -30 97 0 106 10
118 95 118 34 0 66 -5 73 -12z m592 2 c12 -7 15 -31 15 -107 0 -97 0 -98 -25
-100 -14 -1 -38 -5 -55 -8 -64 -13 -108 31 -86 87 6 17 24 28 70 41 66 20 79
30 61 52 -19 23 -87 19 -100 -5 -6 -11 -15 -20 -20 -20 -14 0 -12 44 2 58 14
14 116 16 138 2z m362 -1 c16 -8 18 -23 18 -110 0 -76 -3 -100 -12 -97 -8 3
-15 33 -18 84 -3 43 -9 85 -13 92 -12 18 -74 15 -81 -4 -3 -9 -6 -49 -6 -89 0
-68 -11 -98 -28 -80 -4 4 -9 46 -12 93 l-5 87 -40 0 -40 0 -5 -87 c-5 -88 -10
-105 -29 -93 -16 9 -15 202 1 207 26 9 252 6 270 -3z m248 -8 c5 -11 10 -36
10 -55 l0 -36 -64 0 c-70 0 -90 -12 -84 -52 3 -20 9 -23 55 -26 44 -3 52 0 58
18 8 25 35 27 35 2 0 -36 -25 -54 -78 -60 -38 -3 -58 0 -77 12 -24 16 -25 21
-25 104 0 55 4 92 12 100 7 7 40 12 80 12 56 0 69 -3 78 -19z m216 -7 c14 -20
14 -27 5 -37 -10 -9 -16 -7 -28 11 -19 27 -90 32 -99 7 -9 -22 10 -40 58 -54
79 -24 98 -62 53 -106 -27 -28 -76 -33 -119 -13 -30 13 -43 45 -26 62 9 8 16
6 27 -11 19 -28 90 -33 100 -7 8 21 -13 38 -64 53 -57 16 -76 37 -69 75 8 40
20 46 88 46 51 0 60 -3 74 -26z m-1809 -2494 c57 -34 63 -66 63 -319 0 -206
-2 -229 -20 -258 -38 -63 -55 -68 -245 -68 -187 0 -210 6 -241 66 -22 44 -21
505 2 538 38 54 66 61 244 61 146 0 169 -2 197 -20z m-532 -30 l0 -35 -105 -5
-105 -5 -3 -277 c-2 -269 -3 -277 -23 -283 -11 -4 -31 -4 -45 -1 l-24 6 0 280
0 279 -107 3 c-104 3 -108 4 -111 26 -7 51 1 53 272 50 l251 -3 0 -35z m1183
-2 l3 -37 -108 -3 -108 -3 -5 -280 -5 -280 -40 0 -40 0 -5 280 -5 280 -105 5
-105 5 -3 29 c-2 16 2 33 10 37 7 5 126 8 263 6 l250 -2 3 -37z m349 30 c10
-17 163 -401 163 -411 0 -4 10 -29 21 -55 12 -26 30 -67 41 -91 25 -57 21 -75
-21 -79 -46 -5 -63 14 -91 103 -18 55 -30 77 -45 81 -11 3 -71 3 -134 2 l-115
-3 -28 -80 c-36 -98 -42 -105 -84 -105 -28 0 -34 4 -34 22 0 23 86 255 131
356 16 34 29 66 29 71 0 4 12 36 26 72 57 140 49 129 93 129 22 0 43 -6 48
-12z m412 -1 c7 -9 12 -103 13 -278 l3 -264 157 -3 158 -3 6 -26 c14 -55 4
-58 -197 -61 -101 -1 -194 0 -206 3 l-23 5 0 304 c0 168 3 311 6 320 8 20 67
22 83 3z m821 -273 c3 -153 7 -280 8 -281 1 -1 28 -3 60 -5 51 -3 57 -5 60
-27 2 -13 -2 -28 -10 -32 -7 -5 -77 -9 -154 -9 -117 0 -144 3 -155 16 -23 27
1 48 62 54 l54 5 3 213 c3 233 2 235 -54 181 -34 -33 -64 -34 -64 -4 0 19 160
176 175 171 6 -1 12 -109 15 -282z m981 270 c17 -8 37 -30 45 -49 16 -40 19
-142 4 -181 -6 -15 -72 -90 -147 -166 -85 -86 -133 -142 -127 -148 5 -5 70
-11 144 -12 134 -3 135 -3 138 -27 2 -13 -2 -27 -10 -32 -17 -11 -389 -11
-407 0 -7 5 -12 13 -10 19 2 6 76 84 164 174 89 90 168 174 178 188 26 38 23
137 -5 167 -20 21 -30 23 -123 23 -88 0 -104 -3 -123 -20 -12 -12 -22 -31 -22
-43 0 -33 -15 -49 -41 -45 -49 7 -31 115 24 148 27 17 51 20 160 20 97 0 135
-4 158 -16z m520 0 c17 -8 37 -30 45 -49 16 -40 19 -142 4 -181 -6 -14 -69
-87 -140 -161 -72 -75 -130 -142 -130 -149 0 -11 26 -14 124 -14 68 0 131 -3
140 -6 9 -3 16 -17 16 -29 l0 -23 -192 -4 c-194 -3 -238 -1 -238 11 0 3 81 90
180 193 l180 187 0 75 c0 99 -9 106 -141 106 -82 0 -100 -3 -123 -21 -19 -15
-26 -30 -26 -55 0 -31 -3 -34 -30 -34 -22 0 -31 5 -35 23 -10 38 17 99 54 124
31 21 45 23 158 23 93 0 132 -4 154 -16z m-1090 -6 c0 -7 2 -128 5 -268 2
-140 6 -260 9 -267 2 -7 27 -13 57 -15 47 -3 53 -6 56 -27 2 -13 -2 -28 -10
-32 -7 -5 -74 -9 -148 -9 -74 0 -141 4 -148 9 -8 4 -12 19 -10 32 3 22 9 25
63 29 l60 5 3 213 c2 200 1 212 -16 212 -10 0 -31 -13 -47 -30 -32 -33 -50
-38 -59 -14 -8 20 13 46 93 117 64 56 90 69 92 45z m1616 -113 c45 -66 85
-115 94 -115 15 0 110 119 161 202 14 22 25 28 53 28 19 0 35 -2 35 -6 0 -5
-34 -55 -140 -204 -33 -46 -60 -87 -60 -91 0 -8 63 -102 150 -224 28 -38 50
-73 50 -77 0 -5 -16 -8 -35 -8 -31 0 -38 6 -76 63 -71 104 -130 178 -141 175
-6 -2 -47 -55 -92 -118 -72 -101 -86 -115 -114 -118 -42 -4 -41 11 6 73 98
129 165 237 156 250 -5 7 -28 40 -52 74 -24 34 -66 92 -93 128 -27 36 -49 70
-49 74 0 5 15 9 34 9 33 0 39 -6 113 -115z m841 87 c36 -34 47 -87 40 -197 -9
-130 -43 -155 -218 -155 -84 0 -112 -3 -116 -14 -3 -7 -6 -58 -7 -112 l-2 -99
-27 -3 c-28 -3 -28 -3 -29 60 0 35 -1 153 -3 263 -2 110 -1 219 2 243 l5 42
162 0 163 0 30 -28z m-5034 -6982 c33 -12 44 -54 25 -89 -12 -21 -26 -28 -74
-36 l-60 -10 -3 -43 c-2 -28 -8 -42 -18 -42 -11 0 -14 21 -14 115 l0 115 59 0
c33 0 71 -4 85 -10z m1490 -31 c5 -27 9 -30 30 -25 73 18 124 -75 75 -138 -18
-22 -28 -26 -75 -26 l-54 0 0 110 c0 106 11 143 24 79z m389 -1 c4 -12 4 -48
0 -80 -4 -44 -2 -63 11 -83 16 -24 16 -25 -3 -25 -10 0 -23 6 -29 13 -13 16
-21 147 -11 175 11 28 25 28 32 0z m93 0 c5 -13 7 -56 5 -95 -2 -49 1 -73 8
-73 6 0 11 -5 11 -11 0 -6 -10 -9 -22 -7 -21 3 -24 10 -29 78 -6 80 -2 130 12
130 4 0 11 -10 15 -22z m571 0 c5 -13 8 -53 5 -91 -3 -47 0 -72 9 -83 11 -14
10 -15 -11 -12 -23 3 -25 8 -31 78 -9 113 4 161 28 108z m935 -90 c-4 -59 -2
-71 14 -83 18 -14 17 -14 -8 -15 -16 0 -28 3 -28 8 -1 4 -5 40 -9 81 -6 50 -5
82 2 98 l11 24 11 -22 c8 -13 10 -48 7 -91z m-3322 51 c0 -5 -9 -9 -20 -9 -21
0 -40 -50 -40 -107 0 -18 -5 -33 -10 -33 -7 0 -10 28 -8 77 3 72 4 76 27 80
14 2 27 5 29 8 7 6 22 -4 22 -16z m163 -6 c9 -9 17 -27 17 -40 0 -21 -4 -23
-55 -23 -65 0 -81 -18 -46 -53 21 -22 22 -22 53 -4 34 20 42 18 32 -7 -4 -12
-19 -16 -55 -16 -57 0 -79 23 -79 80 0 77 77 113 133 63z m151 17 c14 -5 26
-17 26 -25 0 -14 -4 -13 -29 4 -24 17 -31 18 -46 7 -26 -19 -13 -40 34 -54 49
-15 67 -42 49 -72 -11 -17 -21 -20 -63 -18 -39 2 -51 7 -53 22 -4 17 -3 18 19
2 30 -20 53 -20 70 0 11 14 10 18 -6 31 -11 8 -33 17 -48 20 -50 10 -58 65
-13 83 28 12 31 12 60 0z m190 -11 c18 -17 -2 -21 -26 -5 -20 13 -27 14 -42 3
-25 -18 -11 -41 36 -57 54 -20 68 -42 44 -69 -23 -26 -97 -29 -116 -6 -19 23
-5 30 22 11 30 -22 55 -20 68 4 10 18 5 23 -45 46 -45 21 -55 31 -53 48 6 39
81 56 112 25z m284 7 c8 -9 22 -82 22 -119 0 -34 -3 -38 -22 -35 -19 2 -23 9
-23 38 0 29 -4 36 -23 38 -55 8 -71 -58 -17 -69 27 -6 26 -7 -11 -8 -46 -1
-69 17 -59 47 6 20 35 35 88 46 17 4 27 13 27 24 0 9 -12 25 -27 35 l-28 18
34 -5 c19 -4 36 -8 39 -10z m180 -2 c19 -13 22 -24 22 -85 0 -39 -4 -69 -10
-69 -6 0 -10 26 -10 59 0 77 -27 108 -69 82 -10 -6 -16 -33 -19 -75 -3 -49 -8
-66 -19 -66 -11 0 -13 16 -11 78 3 76 3 77 30 77 15 1 30 4 34 8 11 11 28 8
52 -9z m1009 6 c52 -19 71 -97 33 -138 -29 -31 -95 -30 -121 1 -34 41 -21 119
24 137 29 12 29 12 64 0z m221 -18 c7 -9 12 -44 12 -80 0 -86 -23 -80 -30 8
-6 70 -25 94 -57 74 -13 -8 -19 -29 -23 -74 -3 -38 -10 -65 -17 -68 -10 -3
-13 17 -13 78 0 80 1 82 23 77 12 -4 29 -2 37 3 19 12 51 3 68 -18z m349 18
c52 -19 71 -97 33 -138 -47 -50 -140 -14 -140 54 0 55 10 68 76 94 1 0 15 -5
31 -10z m310 -12 c7 -6 13 -14 13 -19 0 -14 -22 -10 -42 8 -41 37 -92 -28 -69
-89 14 -37 47 -45 75 -19 26 25 36 26 36 6 0 -38 -99 -49 -124 -13 -22 31 -21
101 2 120 33 29 79 32 109 6z m176 -5 c11 -11 17 -31 17 -61 0 -60 -20 -82
-76 -82 -34 0 -47 5 -63 26 -64 82 45 186 122 117z m171 17 c25 -9 26 -13 26
-85 0 -43 -4 -75 -10 -75 -6 0 -10 26 -10 59 0 68 -18 96 -54 85 -29 -9 -28
-7 -33 -66 -6 -75 -15 -90 -24 -43 -10 50 -1 128 15 122 6 -2 20 -1 31 4 27
10 30 10 59 -1z m367 -9 c20 -16 24 -28 24 -80 0 -81 -19 -83 -25 -3 -10 121
-90 107 -90 -15 0 -29 -4 -53 -10 -53 -6 0 -10 33 -10 80 0 80 0 80 24 74 13
-3 27 -1 30 5 10 16 31 13 57 -8z m377 -1 c22 -14 32 -27 32 -45 0 -24 -3 -25
-54 -25 -58 0 -71 -8 -61 -40 9 -29 51 -37 75 -15 23 21 39 13 20 -10 -9 -11
-27 -15 -59 -13 -41 3 -48 7 -65 39 -17 32 -18 40 -6 68 12 29 50 60 75 61 6
0 25 -9 43 -20z m-3238 4 c0 -7 -27 -34 -34 -34 -12 0 -6 28 7 33 17 8 27 8
27 1z m366 -49 c15 -30 30 -55 34 -55 4 0 13 19 20 43 16 49 29 69 40 62 5 -3
-5 -40 -22 -83 -16 -42 -35 -89 -40 -104 -11 -30 -36 -44 -52 -28 -7 7 -6 10
2 10 6 0 16 9 22 21 9 16 6 35 -14 93 -26 71 -31 96 -21 96 3 0 17 -25 31 -55z
m456 -20 c3 -60 3 -60 35 -63 36 -4 41 5 45 88 5 72 23 47 26 -35 l3 -75 -59
0 c-32 0 -63 5 -70 12 -13 13 -17 130 -5 141 13 14 22 -9 25 -68z m2138 15 c0
-66 7 -80 41 -80 35 0 49 23 49 84 0 25 4 47 9 50 12 8 25 -85 17 -122 -6 -26
-10 -28 -66 -30 l-59 -2 -10 37 c-12 43 -14 84 -5 107 11 29 24 5 24 -44z
m-270 -25 c0 -43 -4 -75 -10 -75 -6 0 -10 32 -10 75 0 43 4 75 10 75 6 0 10
-32 10 -75z"/>
<path d="M12058 15439 c-21 -12 -25 -98 -6 -117 19 -19 133 -16 149 4 17 20
16 88 -1 109 -15 17 -115 20 -142 4z"/>
<path d="M12042 15248 c-7 -7 -12 -35 -12 -63 0 -28 5 -56 12 -63 7 -7 41 -12
83 -12 42 0 76 5 83 12 7 7 12 35 12 63 0 28 -5 56 -12 63 -7 7 -41 12 -83 12
-42 0 -76 -5 -83 -12z"/>
<path d="M26007 15432 c-22 -25 -23 -115 -1 -136 11 -12 35 -16 84 -16 49 0
73 4 84 16 21 20 21 102 0 132 -13 19 -24 22 -83 22 -53 0 -72 -4 -84 -18z"/>
<path d="M16780 14810 l-25 -8 27 -1 c15 -1 30 4 33 9 7 11 0 11 -35 0z"/>
<path d="M23800 14670 c-13 -8 -13 -10 2 -10 9 0 20 5 23 10 8 13 -5 13 -25 0z"/>
<path d="M23827 14575 c-8 -19 2 -24 36 -18 15 3 27 12 27 19 0 19 -56 18 -63
-1z"/>
<path d="M24197 14570 c3 -11 9 -21 14 -21 28 -4 39 -3 39 4 0 4 0 14 0 22 0
10 -10 15 -29 15 -24 0 -28 -3 -24 -20z"/>
<path d="M24396 14574 c-11 -29 -6 -34 29 -34 31 0 35 3 35 25 0 21 -5 25 -29
25 -17 0 -31 -6 -35 -16z"/>
<path d="M23820 14481 c0 -35 12 -45 46 -37 19 5 24 13 24 36 0 28 -3 30 -35
30 -32 0 -35 -2 -35 -29z"/>
<path d="M24190 14465 c0 -10 11 -15 35 -15 24 0 35 5 35 15 0 10 -11 15 -35
15 -24 0 -35 -5 -35 -15z"/>
<path d="M14360 14835 c0 -16 35 -20 65 -9 13 5 14 8 3 15 -22 15 -68 11 -68
-6z"/>
<path d="M14200 14815 c0 -8 6 -15 14 -15 22 0 28 17 10 24 -22 9 -24 8 -24
-9z"/>
<path d="M14120 14790 c0 -5 5 -10 10 -10 6 0 10 5 10 10 0 6 -4 10 -10 10 -5
0 -10 -4 -10 -10z"/>
<path d="M24720 14570 c0 -15 7 -20 29 -20 16 0 31 6 34 14 8 19 -1 26 -35 26
-21 0 -28 -5 -28 -20z"/>
<path d="M24717 14490 c-9 -36 2 -51 37 -48 27 3 31 7 31 33 0 26 -4 30 -31
33 -25 2 -33 -1 -37 -18z"/>
<path d="M24939 14593 c-28 -4 -39 -25 -39 -76 0 -35 16 -32 38 8 9 16 23 36
30 43 7 7 10 18 7 23 -4 5 -7 8 -8 8 -1 -1 -14 -4 -28 -6z"/>
<path d="M24961 14502 c-17 -27 -31 -52 -31 -56 0 -4 17 -6 38 -4 l37 3 3 53
c2 28 -1 52 -6 52 -6 0 -24 -22 -41 -48z"/>
<path d="M25133 14593 c-9 -3 -13 -26 -13 -66 l0 -62 20 25 c11 14 20 31 20
38 0 6 3 12 8 12 10 0 31 48 24 55 -6 6 -42 5 -59 -2z"/>
<path d="M25188 14523 c-14 -21 -28 -49 -32 -61 -7 -22 -5 -23 31 -20 38 3 38
3 41 52 4 66 -9 75 -40 29z"/>
<path d="M25346 14588 c-19 -61 -8 -132 14 -98 33 50 58 99 53 104 -11 11 -64
6 -67 -6z"/>
<path d="M25417 14546 c-10 -14 -17 -29 -17 -33 0 -3 -9 -17 -21 -29 -27 -28
-17 -44 26 -44 37 0 45 12 45 68 0 55 -13 69 -33 38z"/>
<path d="M22414 12816 c-3 -8 -4 -31 -2 -52 l3 -39 57 -3 c50 -3 57 -1 63 18
4 12 4 37 0 56 -6 34 -6 34 -61 34 -37 0 -56 -4 -60 -14z"/>
<path d="M23054 12926 c-3 -8 -4 -31 -2 -52 3 -37 5 -39 41 -42 21 -2 45 2 53
9 17 14 19 70 2 87 -17 17 -87 15 -94 -2z"/>
<path d="M15655 12793 c-37 -8 -65 -26 -65 -43 0 -25 21 -40 55 -40 40 0 55
16 55 57 0 33 -4 35 -45 26z"/>
<path d="M16824 12867 c-3 -8 -4 -45 -2 -83 l3 -69 43 -3 c24 -2 50 2 58 9 18
14 19 130 2 147 -17 17 -97 16 -104 -1z"/>
<path d="M17448 12869 c-14 -8 -18 -24 -18 -72 0 -73 10 -87 62 -87 49 0 62
24 55 96 -3 30 -8 58 -12 64 -8 13 -65 13 -87 -1z"/>
<path d="M17792 12871 c-8 -4 -12 -19 -10 -32 3 -21 9 -24 54 -27 44 -3 52 0
56 16 9 33 -10 52 -50 52 -20 0 -43 -4 -50 -9z"/>
<path d="M18170 12865 c-6 -8 -9 -23 -5 -35 5 -16 15 -20 55 -20 52 0 68 16
50 51 -13 23 -81 27 -100 4z"/>
<path d="M22134 11985 c-4 -8 -3 -31 0 -51 l7 -35 57 3 57 3 0 45 0 45 -58 3
c-44 2 -59 0 -63 -13z"/>
<path d="M22419 11880 c-12 -90 -6 -100 57 -100 l54 0 0 49 c0 35 -4 51 -16
55 -25 10 -94 7 -95 -4z"/>
<path d="M23067 11993 c-14 -4 -17 -13 -15 -46 3 -42 3 -42 47 -45 49 -4 61 6
61 51 0 37 -39 54 -93 40z"/>
<path d="M15737 11934 c-12 -12 -8 -139 5 -152 17 -17 83 -15 97 2 7 9 11 41
9 83 l-3 68 -50 3 c-28 2 -54 0 -58 -4z"/>
<path d="M16114 11926 c-12 -31 1 -51 35 -54 69 -7 104 21 69 56 -17 17 -97
16 -104 -2z"/>
<path d="M22088 11048 c-3 -7 -2 -46 1 -87 l6 -75 48 77 c26 43 47 82 47 87 0
15 -97 12 -102 -2z"/>
<path d="M22199 10993 c-8 -15 -29 -52 -46 -82 -18 -30 -33 -59 -33 -63 0 -5
24 -8 53 -6 l52 3 3 88 c3 90 -5 106 -29 60z"/>
<path d="M22387 11053 c-4 -3 -7 -47 -7 -97 l0 -91 35 52 c19 29 35 56 35 60
0 4 9 19 20 33 31 40 26 50 -28 50 -27 0 -52 -3 -55 -7z"/>
<path d="M22509 11012 c-77 -126 -96 -161 -91 -166 12 -12 103 -6 108 7 3 8 4
53 2 100 -3 85 -3 86 -19 59z"/>
<path d="M23054 11046 c-3 -8 -4 -29 -2 -48 3 -29 8 -34 40 -42 59 -15 88 28
58 85 -13 23 -87 27 -96 5z"/>
<path d="M22115 10122 c-11 -3 -23 -9 -27 -16 -11 -16 -10 -156 2 -156 5 0 25
26 43 59 19 32 42 70 51 84 17 25 17 25 -16 29 -18 2 -42 2 -53 0z"/>
<path d="M22190 10038 c-13 -24 -36 -62 -52 -86 -33 -49 -28 -55 43 -50 l44 3
3 88 c1 48 -1 87 -6 87 -4 0 -19 -19 -32 -42z"/>
<path d="M22403 10123 c-22 -4 -23 -9 -23 -100 0 -53 2 -94 4 -92 11 11 106
172 106 179 0 4 -10 10 -22 14 -24 6 -29 6 -65 -1z"/>
<path d="M22513 10080 c-7 -14 -33 -56 -57 -95 -24 -38 -42 -73 -39 -77 8 -14
103 -9 109 5 3 8 4 54 2 102 -3 79 -4 86 -15 65z"/>
<path d="M23052 10068 l3 -53 38 -3 c45 -4 67 11 67 45 0 47 -17 63 -66 63
l-45 0 3 -52z"/>
<path d="M15512 10048 c-17 -17 -16 -122 2 -137 8 -7 34 -11 58 -9 l43 3 0 75
0 75 -45 3 c-26 2 -50 -2 -58 -10z"/>
<path d="M16214 10046 c-13 -34 4 -47 53 -44 44 3 48 5 48 28 0 23 -4 25 -48
28 -35 2 -49 -1 -53 -12z"/>
<path d="M17374 10045 c-12 -31 4 -45 50 -45 49 0 61 9 51 40 -5 16 -15 20
-51 20 -30 0 -46 -5 -50 -15z"/>
<path d="M18003 9964 c-37 -16 -45 -27 -37 -48 4 -11 19 -16 48 -16 49 0 66
13 66 52 0 23 -4 28 -22 27 -13 0 -37 -7 -55 -15z"/>
<path d="M18565 10040 c-10 -31 2 -40 55 -40 53 0 65 9 55 40 -5 16 -15 20
-55 20 -40 0 -50 -4 -55 -20z"/>
<path d="M16762 7494 c-22 -15 -22 -19 -22 -233 0 -198 2 -219 18 -234 27 -24
273 -25 296 -1 14 13 16 49 16 234 0 268 12 250 -165 250 -93 0 -126 -4 -143
-16z"/>
<path d="M18035 7398 c-23 -57 -65 -179 -65 -190 0 -4 41 -8 90 -8 50 0 90 3
90 8 0 17 -83 232 -90 232 -4 0 -16 -19 -25 -42z"/>
<path d="M21914 7497 c-2 -7 -3 -67 -2 -133 l3 -119 110 -3 c100 -2 113 -1
133 18 20 19 22 31 22 114 0 84 -2 95 -23 114 -21 20 -34 22 -130 22 -80 0
-109 -3 -113 -13z"/>
<path d="M17064 526 c-3 -8 -4 -27 -2 -43 3 -25 7 -28 44 -31 62 -5 95 36 58
72 -20 20 -93 21 -100 2z"/>
<path d="M18687 468 c-37 -28 -26 -118 15 -126 24 -5 58 34 58 66 0 31 -25 72
-44 72 -7 0 -20 -6 -29 -12z"/>
<path d="M17406 464 c-23 -22 -15 -38 20 -42 41 -3 62 12 48 35 -15 24 -48 28
-68 7z"/>
<path d="M19246 464 c-9 -9 -16 -32 -16 -54 0 -64 52 -94 84 -48 44 63 -17
154 -68 102z"/>
<path d="M19816 464 c-9 -9 -16 -32 -16 -54 0 -66 54 -94 86 -45 19 29 14 93
-8 107 -20 12 -45 9 -62 -8z"/>
<path d="M20278 469 c-27 -15 -25 -104 2 -119 59 -31 109 61 60 110 -22 22
-37 24 -62 9z"/>
<path d="M21205 464 c-23 -24 -13 -39 28 -42 41 -4 59 17 37 43 -16 20 -45 19
-65 -1z"/>
</g>
</svg>
